<?xml version="1.0" encoding="utf-8"?>
<!-- Generator: Adobe Illustrator 22.1.0, SVG Export Plug-In . SVG Version: 6.00 Build 0)  -->
<svg version="1.1" id="Layer_1" xmlns="http://www.w3.org/2000/svg" xmlns:xlink="http://www.w3.org/1999/xlink" x="0px" y="0px"
	 viewBox="0 0 384 222" style="enable-background:new 0 0 384 222;" xml:space="preserve">
<style type="text/css">
	.st0{opacity:0.1;fill:#787FE8;}
	.st1{fill:#A08FE5;}
	.st2{fill:#BA98E7;}
	.st3{fill:#8182E7;}
	.st4{fill:#607CDE;}
	.st5{fill:#D3A5EE;}
	.st6{opacity:0.15;fill:#FF6774;}
	.st7{opacity:0.15;fill:#5078FF;}
	.st8{opacity:0.15;fill:#917BFB;}
</style>
<circle class="st0" cx="267.2" cy="107.1" r="86.1"/>
<g>
	<polygon class="st1" points="300.1,80.1 300.1,122 335.5,145.4 371,151.8 371,103.8 	"/>
	<polygon class="st2" points="299.9,74 279.1,82.7 350.1,112.5 370.9,103.8 	"/>
	<polygon class="st3" points="268.6,158.4 315,181.3 349.3,164.7 299.9,141.7 	"/>
	<polygon class="st1" points="299.9,147.7 302.9,134.9 299.9,122 243.9,145.5 260.2,164.4 	"/>
	<polygon class="st4" points="340.2,164.7 370.8,151.8 299.8,122 299.8,147.7 	"/>
	<polygon class="st2" points="244,145.5 244,171.2 315,201 321,188.2 315,175.3 	"/>
	<polygon class="st5" points="314.9,175.3 314.9,201 371,177.5 371,151.8 	"/>
	<g>
	</g>
	<g>
	</g>
	<g>
	</g>
	<g>
	</g>
	<g>
	</g>
	<g>
	</g>
	<g>
	</g>
	<g>
	</g>
	<g>
	</g>
	<g>
	</g>
	<g>
	</g>
	<g>
	</g>
	<g>
	</g>
	<g>
	</g>
	<g>
	</g>
</g>
<circle class="st6" cx="149.5" cy="156.5" r="5.5"/>
<circle class="st6" cx="15" cy="109" r="4"/>
<polygon class="st7" points="142.6,46.7 142.2,49 143.8,50.6 141.5,50.9 140.5,53 139.5,50.9 137.2,50.5 138.9,48.9 138.5,46.7 
	140.5,47.8 "/>
<polygon class="st7" points="59,195 59,192.1 56.5,190.4 59.3,189.5 60.1,186.7 61.9,189 64.8,188.9 63.1,191.3 64.1,194 
	61.3,193.2 "/>
<rect x="49" y="23" class="st8" width="5" height="5"/>
<rect x="93" y="111" class="st8" width="5" height="5"/>
</svg>
