<?xml version="1.0" encoding="utf-8"?>
<!-- Generator: Adobe Illustrator 22.1.0, SVG Export Plug-In . SVG Version: 6.00 Build 0)  -->
<svg version="1.1" id="Layer_1" xmlns="http://www.w3.org/2000/svg" xmlns:xlink="http://www.w3.org/1999/xlink" x="0px" y="0px"
	 viewBox="0 0 1200 1200" style="enable-background:new 0 0 1200 1200;" xml:space="preserve">
<style type="text/css">
	.st0{fill:#A9ABAB;stroke:#A9ABAB;stroke-width:60;stroke-miterlimit:10;}
</style>
<g>
	<g transform="translate(600 600) scale(0.69 0.69) rotate(0) translate(-600 -600)">
		<title>22</title>
		<path class="st0" d="M1054.2,368.5H831.5V145.8C831.5,81,779,28.5,714.3,28.5H145.8C81,28.5,28.5,81,28.5,145.8v568.5
			c0,64.7,52.5,117.2,117.2,117.2c0,0,0,0,0,0h222.7v222.7c0,64.7,52.5,117.2,117.2,117.2h568.5c64.7,0,117.2-52.5,117.2-117.2
			V485.7C1171.5,421,1119,368.5,1054.2,368.5z M116.5,714.3V145.8c0-16.2,13.1-29.3,29.3-29.3h568.5c16.2,0,29.3,13.1,29.3,29.3
			v568.5c0,16.2-13.1,29.3-29.3,29.3H145.8C129.6,743.6,116.5,730.5,116.5,714.3z M1083.5,1054.2c0,16.2-13.1,29.3-29.3,29.3H485.7
			c-16.2,0-29.3-13.1-29.3-29.3V831.5h257.9c64.7,0,117.2-52.5,117.2-117.2v0V456.4h222.7c16.2,0,29.3,13.1,29.3,29.3V1054.2z"/>
	</g>
</g>
</svg>
