<?xml version="1.0" encoding="utf-8"?>
<!-- Generator: Adobe Illustrator 22.1.0, SVG Export Plug-In . SVG Version: 6.00 Build 0)  -->
<svg version="1.1" id="Layer_1" xmlns="http://www.w3.org/2000/svg" xmlns:xlink="http://www.w3.org/1999/xlink" x="0px" y="0px"
	 viewBox="0 0 1200 1200" style="enable-background:new 0 0 1200 1200;" xml:space="preserve">
<style type="text/css">
	.st0{fill:#A9ABAB;}
</style>
<g>
	<g transform="translate(600 600) scale(0.69 0.69) rotate(0) translate(-600 -600)">
		<title>04</title>
		<path class="st0" d="M657.8-6.7L73.1,578.1c-11.1,11.1-18,25.8-19.3,41.5L32.2,874.6c-3.1,36.7,24.1,69,60.8,72.1
			c2,0.2,3.9,0.2,5.9,0.2h4.2l260.2-16.7c16.2-1,31.5-7.9,43-19.3l584.6-584.6c71.6-71.6,71.7-187.7,0.1-259.3c0,0,0,0-0.1-0.1
			L916.7-6.7C845.2-78,729.4-78,657.8-6.7z M329.6,798.9l-158,10l13-153.9l435.8-435.8l144.4,144.4L329.6,798.9z M896.4,232.2
			l-37.5,37.5L714.5,125.3L752,87.8c19.5-19.5,51.2-19.5,70.7,0l73.7,73.7C915.9,181,915.9,212.6,896.4,232.2z"/>
		<path class="st0" d="M1208.5,1126.9H-8.5c-36.8,0-66.7,29.9-66.7,66.7c0,36.8,29.9,66.7,66.7,66.7h1216.9
			c36.8,0,66.7-29.9,66.7-66.7C1275.1,1156.7,1245.3,1126.9,1208.5,1126.9z"/>
	</g>
</g>
</svg>
