<svg xmlns="http://www.w3.org/2000/svg" xmlns:xlink="http://www.w3.org/1999/xlink" width="1200" height="1200" viewBox="0 0 1200 1200"><g><g transform="translate(600 600) scale(0.69 0.69) rotate(0) translate(-600 -600)" style="fill:#a9abab"><svg fill="#a9abab" xmlns="http://www.w3.org/2000/svg" xmlns:xlink="http://www.w3.org/1999/xlink" version="1.1" x="0px" y="0px" viewBox="0 0 100 100" style="enable-background:new 0 0 100 100;" xml:space="preserve"><g><path d="M85,78L69.9,62.8c3.7-5.1,5.9-11.4,5.9-18.2c0-17.2-14-31.1-31.1-31.1s-31.1,14-31.1,31.1c0,17.2,14,31.1,31.1,31.1   c6.8,0,13.1-2.2,18.2-5.9L78,85c1,1,2.3,1.5,3.5,1.5S84.1,86,85,85C87,83.1,87,79.9,85,78z M44.6,65.8c-11.7,0-21.1-9.5-21.1-21.1   c0-11.7,9.5-21.1,21.1-21.1S65.8,33,65.8,44.6C65.8,56.3,56.3,65.8,44.6,65.8z"></path></g></svg></g></g></svg>