<?xml version="1.0" encoding="utf-8"?>
<!-- Generator: Adobe Illustrator 22.1.0, SVG Export Plug-In . SVG Version: 6.00 Build 0)  -->
<svg version="1.1" id="Layer_1" xmlns="http://www.w3.org/2000/svg" xmlns:xlink="http://www.w3.org/1999/xlink" x="0px" y="0px"
	 viewBox="0 0 1200 1200" style="enable-background:new 0 0 1200 1200;" xml:space="preserve">
<style type="text/css">
	.st0{fill:#A9ABAB;stroke:#A9ABAB;stroke-width:20;stroke-miterlimit:10;}
</style>
<g>
	<g transform="translate(600 600) scale(0.69 0.69) rotate(0) translate(-600 -600)">
		<title>Ui_Thick_Icon_Info_1</title>
		<path class="st0" d="M600,901.4c-36.9,0-66.8-29.9-66.8-66.8V577.3c0-36.9,29.9-66.8,66.8-66.8c36.9,0,66.8,29.9,66.8,66.8v257.3
			C666.8,871.4,636.9,901.4,600,901.4z M1166.4,600c0-312.8-253.6-566.4-566.4-566.4S33.6,287.2,33.6,600s253.6,566.4,566.4,566.4
			c0,0,0,0,0,0C912.7,1166.1,1166.1,912.7,1166.4,600z M1032.7,600c0.1,239-193.6,432.8-432.6,432.9
			c-239,0.1-432.8-193.6-432.9-432.6c-0.1-239,193.6-432.8,432.6-432.9c0,0,0.1,0,0.1,0C838.8,167.7,1032.4,361.2,1032.7,600z
			 M666.8,406.5V405c0-36.9-29.9-66.8-66.8-66.8c-36.9,0-66.8,29.9-66.8,66.8v1.5c0,36.9,29.9,66.8,66.8,66.8
			C636.9,473.3,666.8,443.4,666.8,406.5z"/>
	</g>
</g>
</svg>
