<?xml version="1.0" encoding="utf-8"?>
<!-- Generator: Adobe Illustrator 22.1.0, SVG Export Plug-In . SVG Version: 6.00 Build 0)  -->
<svg version="1.1" id="Layer_1" xmlns="http://www.w3.org/2000/svg" xmlns:xlink="http://www.w3.org/1999/xlink" x="0px" y="0px"
	 viewBox="0 0 1200 1200" style="enable-background:new 0 0 1200 1200;" xml:space="preserve">
<style type="text/css">
	.st0{fill:#A9ABAB;stroke:#A9ABAB;stroke-width:40;stroke-miterlimit:10;}
</style>
<g>
	<g transform="translate(600 600) scale(0.69 0.69) rotate(0) translate(-600 -600)">
		<title>icons_set</title>
		<path class="st0" d="M1189,567.1l-159.6-159.6c-18.8-18.8-46.9-18.8-65.7,0l0,0l-32.9,32.9l112.6,112.6H492.1
			c-25.8,0-46.9,21.1-46.9,46.9s21.1,46.9,46.9,46.9h551.4L930.8,759.6l32.9,32.9c18.8,18.8,46.9,18.8,65.7,0l0,0L1189,632.9
			C1207.7,614.1,1207.7,585.9,1189,567.1L1189,567.1z M257.4,1102.1C116.6,1102.1,1.7,991.9-3,851.1V348.9
			C1.7,208.1,116.6,97.9,257.4,97.9h302.7c138.4,0,248.7,112.6,251.1,251.1c0,28.2-21.1,49.3-49.3,49.3s-49.3-21.1-49.3-49.3
			c0-84.5-68-152.5-152.5-152.5H257.4c-84.5,0-157.2,65.7-161.9,152.5v502.1c4.7,84.5,75.1,152.5,161.9,152.5h302.7
			c84.5,0,152.5-68,152.5-152.5c0-28.2,21.1-49.3,49.3-49.3c28.2,0,49.3,21.1,49.3,49.3l0,0c0,138.4-112.6,251.1-251.1,251.1
			L257.4,1102.1L257.4,1102.1z"/>
	</g>
</g>
</svg>
