<?xml version="1.0" encoding="utf-8"?>
<!-- Generator: Adobe Illustrator 22.1.0, SVG Export Plug-In . SVG Version: 6.00 Build 0)  -->
<svg version="1.1" id="Layer_1" xmlns="http://www.w3.org/2000/svg" xmlns:xlink="http://www.w3.org/1999/xlink" x="0px" y="0px"
	 viewBox="0 0 1200 1200" style="enable-background:new 0 0 1200 1200;" xml:space="preserve">
<style type="text/css">
	.st0{fill:#A9ABAB;stroke:#A9ABAB;stroke-width:40;stroke-miterlimit:10;}
</style>
<g>
	<g transform="translate(600 600) scale(0.69 0.69) rotate(0) translate(-600 -600)">
		<title>icons_set</title>
		<path class="st0" d="M1319.2,567.1l-159.6-159.6c-18.8-18.8-46.9-18.8-65.7,0l0,0l-32.9,32.9L1173.6,553H622.3
			c-25.8,0-46.9,21.1-46.9,46.9s21.1,46.9,46.9,46.9h551.4L1061,759.6l32.9,32.9c18.8,18.8,46.9,18.8,65.7,0l0,0l159.6-159.6
			C1337.9,614.1,1337.9,585.9,1319.2,567.1L1319.2,567.1z M387.6,1102.1c-140.8,0-255.7-110.2-260.4-251V348.9
			c4.7-140.8,119.6-251,260.4-251h302.7C828.7,97.9,939,210.5,941.4,349c0,28.2-21.1,49.3-49.3,49.3s-49.3-21.1-49.3-49.3
			c0-84.5-68-152.5-152.5-152.5H387.6c-84.5,0-157.2,65.7-161.9,152.5v502.1c4.7,84.5,75.1,152.5,161.9,152.5h302.7
			c84.5,0,152.5-68,152.5-152.5c0-28.2,21.1-49.3,49.3-49.3s49.3,21.1,49.3,49.3l0,0c0,138.4-112.6,251.1-251.1,251.1L387.6,1102.1
			L387.6,1102.1z"/>
	</g>
</g>
</svg>
