<?xml version="1.0" encoding="utf-8"?>
<!-- Generator: Adobe Illustrator 22.1.0, SVG Export Plug-In . SVG Version: 6.00 Build 0)  -->
<svg version="1.1" id="Layer_1" xmlns="http://www.w3.org/2000/svg" xmlns:xlink="http://www.w3.org/1999/xlink" x="0px" y="0px"
	 viewBox="0 0 1200 1200" style="enable-background:new 0 0 1200 1200;" xml:space="preserve">
<style type="text/css">
	.st0{fill:#444444;stroke:#444444;stroke-width:40;stroke-miterlimit:10;}
</style>
<g>
	<g transform="translate(600 600) scale(0.69 0.69) rotate(0) translate(-600 -600)">
		<g>
			<path class="st0" d="M600,880.2c153.2,0,278.5-125.3,278.5-278.5V149.3c0-153.2-125.3-278.5-278.5-278.5S321.5-3.9,321.5,149.3
				v452.5C321.5,754.9,446.8,880.2,600,880.2z M425.9,149.3c0-95.7,78.3-174.1,174.1-174.1s174.1,78.3,174.1,174.1v452.5
				c0,95.7-78.3,174.1-174.1,174.1s-174.1-78.3-174.1-174.1V149.3z"/>
			<path class="st0" d="M547.8,1068.2v156.6H452c-29.6,0-52.2,22.6-52.2,52.2c0,29.6,22.6,52.2,52.2,52.2h297.6
				c29.6,0,52.2-22.6,52.2-52.2c0-29.6-22.6-52.2-52.2-52.2h-97.4v-156.6c224.5-22.6,400.3-193.1,400.3-396.9
				c0-29.6-22.6-52.2-52.2-52.2c-29.6,0-52.2,22.6-52.2,52.2c0,163.6-156.6,295.8-348,295.8S252,834.9,252,671.4
				c0-29.6-22.6-52.2-52.2-52.2s-52.2,22.6-52.2,52.2C147.5,874.9,323.3,1045.5,547.8,1068.2z"/>
		</g>
	</g>
</g>
</svg>
