<?xml version="1.0" encoding="utf-8"?>
<!-- Generator: Adobe Illustrator 22.1.0, SVG Export Plug-In . SVG Version: 6.00 Build 0)  -->
<svg version="1.1" id="Layer_1" xmlns="http://www.w3.org/2000/svg" xmlns:xlink="http://www.w3.org/1999/xlink" x="0px" y="0px"
	 viewBox="0 0 1200 1200" style="enable-background:new 0 0 1200 1200;" xml:space="preserve">
<style type="text/css">
	.st0{fill:#787FE8;stroke:#787FE8;stroke-width:40;stroke-miterlimit:10;}
</style>
<g>
	<g transform="translate(600 600) scale(0.69 0.69) rotate(0) translate(-600 -600)">
		<g>
			<path class="st0" d="M600,880.1c153.1,0,278.5-125.3,278.5-278.5V149.3c0-153.1-125.3-278.5-278.5-278.5S321.5-3.8,321.5,149.3
				v452.5C321.5,754.9,446.9,880.1,600,880.1z M426,149.3c0-95.7,78.3-174,174-174s174,78.3,174,174v452.5c0,95.7-78.3,174-174,174
				s-174-78.3-174-174V149.3z"/>
			<path class="st0" d="M547.8,1068.2v156.6h-95.7c-29.6,0-52.2,22.7-52.2,52.2s22.7,52.2,52.2,52.2h297.6
				c29.6,0,52.2-22.7,52.2-52.2s-22.7-52.2-52.2-52.2h-97.5v-156.6c224.5-22.7,400.3-193.1,400.3-396.8c0-29.6-22.7-52.2-52.2-52.2
				c-29.6,0-52.2,22.7-52.2,52.2c0,163.6-156.6,295.8-348,295.8S252,834.9,252,671.3c0-29.6-22.7-52.2-52.2-52.2
				s-52.2,22.7-52.2,52.2C147.5,874.9,323.3,1045.5,547.8,1068.2z"/>
		</g>
	</g>
</g>
</svg>
