<?xml version="1.0" encoding="utf-8"?>
<!-- Generator: Adobe Illustrator 22.1.0, SVG Export Plug-In . SVG Version: 6.00 Build 0)  -->
<svg version="1.1" id="Layer_1" xmlns="http://www.w3.org/2000/svg" xmlns:xlink="http://www.w3.org/1999/xlink" x="0px" y="0px"
	 viewBox="0 0 1200 1200" style="enable-background:new 0 0 1200 1200;" xml:space="preserve">
<style type="text/css">
	.st0{fill:#A9ABAB;stroke:#A9ABAB;stroke-width:40;stroke-miterlimit:10;}
</style>
<g>
	<g transform="translate(600 600) scale(0.69 0.69) rotate(0) translate(-600 -600)">
		<title>114</title>
		<path class="st0" d="M736.1,91.9c-9-9.2-21.4-14.4-34.3-14.4H325.3c-79.5,0-144,64.5-144,144v757c0,79.5,64.5,144,144,144h549.4
			c79.5,0,144-64.5,144-144V400c0-12.6-4.9-24.6-13.7-33.6L736.1,91.9z M748.1,241.2l120,122h-120L748.1,241.2z M874.7,1026.5H325.3
			c-26.5,0-48-21.5-48-48v-757c0-26.5,21.5-48,48-48H652v213.7c0,39.8,32.2,72,72,72h198.7v519.2
			C922.7,1005,901.2,1026.5,874.7,1026.5z"/>
	</g>
</g>
</svg>
