<?xml version="1.0" encoding="utf-8"?>
<!-- Generator: Adobe Illustrator 22.1.0, SVG Export Plug-In . SVG Version: 6.00 Build 0)  -->
<svg version="1.1" id="Layer_1" xmlns="http://www.w3.org/2000/svg" xmlns:xlink="http://www.w3.org/1999/xlink" x="0px" y="0px"
	 viewBox="0 0 256 256" style="enable-background:new 0 0 256 256;" xml:space="preserve">
<style type="text/css">
	.st0{fill:url(#SVGID_1_);}
	.st1{clip-path:url(#SVGID_3_);}
</style>
<linearGradient id="SVGID_1_" gradientUnits="userSpaceOnUse" x1="210.8076" y1="211.9794" x2="246.7638" y2="170.3592">
	<stop  offset="0" style="stop-color:#607CE0"/>
	<stop  offset="0.5025" style="stop-color:#9187E4"/>
	<stop  offset="1" style="stop-color:#D8A2F4"/>
</linearGradient>
<circle class="st0" cx="228.5" cy="191.5" r="27.5"/>
<g>
	<defs>
		<rect id="SVGID_2_" x="-0.5" y="36.2" width="184.5" height="183"/>
	</defs>
	<clipPath id="SVGID_3_">
		<use xlink:href="#SVGID_2_"  style="overflow:visible;"/>
	</clipPath>
	<g class="st1">
		<g>
			<path d="M184,219.1c-17.5,0-34.9,0-52.3,0c0-0.5,0-1,0-1.5c0-31,0-62,0-93c0-5.9-0.4-11.7-1.8-17.4c-1.7-6.7-4.5-12.9-9.8-17.6
				c-4.2-3.9-9.2-6.3-14.8-7.3c-11.3-2.1-22.4-1.3-32.7,4.2c-6,3.2-10.6,7.8-14,13.6c-3.9,6.6-5.8,13.9-6.3,21.5
				c-0.3,4.2-0.4,8.5-0.4,12.7c0,27.8,0,55.6,0,83.3c0,0.4,0,0.9,0,1.4c-17.4,0-34.8,0-52.3,0c0-60.1,0-120.2,0-180.4
				c16.6,0,33.2,0,49.9,0c0,7,0,13.9,0,21c0.3-0.2,0.4-0.3,0.6-0.4c9.5-10.1,21.2-16.5,34.5-20.1c9-2.5,18.2-3.4,27.6-3.1
				c8.2,0.2,16.2,1.4,24,3.8c8.2,2.6,15.7,6.6,22.5,12c8.6,6.9,14.8,15.4,18.9,25.6c3.7,9.1,5.6,18.6,6.2,28.4
				c0.3,5.2,0.4,10.5,0.4,15.8c0,32,0,64.1,0,96.1C184,218,184,218.5,184,219.1z"/>
		</g>
	</g>
</g>
</svg>
