<?xml version="1.0" encoding="utf-8"?>
<!-- Generator: Adobe Illustrator 22.1.0, SVG Export Plug-In . SVG Version: 6.00 Build 0)  -->
<svg version="1.1" xmlns="http://www.w3.org/2000/svg" xmlns:xlink="http://www.w3.org/1999/xlink" x="0px" y="0px"
	 viewBox="0 0 1200 1200" style="enable-background:new 0 0 1200 1200;" xml:space="preserve">
<style type="text/css">
	.st0{fill:#A9ABAB;stroke:#A9ABAB;stroke-width:50;stroke-miterlimit:10;}
</style>
<g id="Layer_2">
</g>
<g id="Layer_1">
	<g>
		<g>
			<g>
				<path class="st0" d="M1097.5,776c-96-30-128.4-69.6-135.6-94.8c31.2-2.4,87.6-10.8,121.2-45.6c6-6,8.4-14.4,6-21.6
					c-2.4-7.2-8.4-13.2-15.6-15.6c-3.6-1.2-40.8-18-32.4-102c6-62.4,3.6-146.4-40.8-192c-19.2-19.2-44.4-28.8-73.2-28.8
					c-18-14.4-61.2-40.8-129.6-14.4h-1.2c-46.8,18-109.2,58.8-105.6,206.4c2.4,96-21.6,124.8-32.4,128.4
					c-8.4-1.2-15.6,3.6-19.2,10.8c-4.8,7.2-2.4,16.8,2.4,25.2c3.6,4.8,34.8,46.8,128.4,51.6c-4.8,18-22.8,46.8-82.8,74.4
					c-10.8,4.8-22.8,9.6-34.8,14.4c-1.2,1.2-3.6,1.2-4.8,2.4c-122.4-34.8-153.6-75.6-160.8-92.4c97.2-67.2,84-228,82.8-241.2
					c-7.2-147.6-115.2-183.6-180-182.4c-63.6-2.4-172.8,33.6-180,182.4c-1.2,14.4-15.6,180,87.6,244.8c-10.8,19.2-48,61.2-183.6,96
					c-56.4,14.4-85.2,68.4-80.4,147.6c1.2,12,10.8,20.4,22.8,20.4h673.2c1.2,0,1.2,0,2.4,0c1.2,0,1.2,0,2.4,0h410.4
					c12,0,21.6-9.6,22.8-21.6C1170.7,845.6,1146.7,791.6,1097.5,776z M77.5,904.4c1.2-31.2,9.6-70.8,46.8-80.4
					c219.6-55.2,222-141.6,222-151.2c0-4.8-2.4-9.6-6-13.2c0,0,0-1.2-1.2-1.2c-1.2-1.2-1.2-1.2-2.4-1.2c0,0-1.2-1.2-2.4-1.2
					l-1.2-1.2l-1.2-1.2c-94.8-44.4-78-207.6-78-208.8v-1.2c6-138,112.8-140.4,134.4-139.2h1.2c21.6-1.2,127.2,2.4,134.4,139.2v1.2
					c0,1.2,16.8,159.6-74.4,207.6c-9.6,4.8-14.4,15.6-10.8,26.4c2.4,21.6,22.8,97.2,222,146.4c37.2,9.6,45.6,48,46.8,80.4h-630
					V904.4z M751.9,904.4c-1.2-48-16.8-85.2-44.4-106.8c128.4-60,108-139.2,108-142.8l-3.6,1.2c-2.4-9.6-10.8-18-21.6-18l0,0
					c-1.2,0-2.4,0-2.4,0c-43.2,0-69.6-8.4-86.4-16.8c26.4-27.6,38.4-79.2,36-153.6c-3.6-133.2,52.8-153.6,76.8-163.2h1.2
					c58.8-21.6,86.4,9.6,87.6,10.8c4.8,6,12,8.4,19.2,8.4c20.4-2.4,36,3.6,48,15.6c25.2,25.2,36,81.6,28.8,156
					c-7.2,69.6,13.2,106.8,32.4,127.2c-30,14.4-70.8,16.8-87.6,16.8c-10.8,0-19.2,7.2-21.6,16.8l0,0l0,0c0,0,0,0,0,1.2
					c-3.6,13.2-18,108,165.6,164.4c31.2,9.6,37.2,52.8,38.4,85.2H751.9V904.4z"/>
			</g>
		</g>
	</g>
</g>
</svg>
