<?xml version="1.0" encoding="utf-8"?>
<!-- Generator: Adobe Illustrator 22.1.0, SVG Export Plug-In . SVG Version: 6.00 Build 0)  -->
<svg version="1.1" id="Layer_1" xmlns="http://www.w3.org/2000/svg" xmlns:xlink="http://www.w3.org/1999/xlink" x="0px" y="0px"
	 viewBox="0 0 1200 1200" style="enable-background:new 0 0 1200 1200;" xml:space="preserve">
<style type="text/css">
	.st0{fill:#6A6C74;}
</style>
<g>
	<g transform="translate(600 600) scale(0.69 0.69) rotate(0) translate(-600 -600)">
		<title>rainbow</title>
		<path class="st0" d="M599.9,710.1c187,0.2,338.5,159.9,338.7,356.9h88.3c4.6-248.4-182.7-453.8-418.5-458.7
			c-235.8-4.9-430.6,192.5-435.3,441c-0.1,5.9-0.1,11.8,0,17.7h88.3C261.6,870,413,710.4,599.9,710.1z"/>
		<path class="st0" d="M599.9,548.7c271.4,0.4,491.3,232.2,491.6,518.2h88.3c0-337.6-259.7-611.2-580-611.2s-580,273.6-580,611.2
			h88.3C108.4,780.9,328.4,549,599.9,548.7z"/>
		<path class="st0" d="M599.9,871.4c102.4,0.1,185.4,87.6,185.5,195.5h88.3c0-159.4-122.6-288.6-273.8-288.6S326.1,907.6,326.1,1067
			h88.3C414.5,959,497.5,871.5,599.9,871.4z"/>
		<path class="st0" d="M599.9,387.4c356.2,0,644.9,304.3,644.9,679.6h88.3c0-426.7-328.2-772.6-733.1-772.6S-133.1,640.3-133.1,1067
			l0,0H-45C-45,691.6,243.7,387.4,599.9,387.4z"/>
	</g>
</g>
</svg>
