<?xml version="1.0" encoding="utf-8"?>
<!-- Generator: Adobe Illustrator 22.1.0, SVG Export Plug-In . SVG Version: 6.00 Build 0)  -->
<svg version="1.1"
	 id="Layer_1" xmlns:cc="http://creativecommons.org/ns#" xmlns:dc="http://purl.org/dc/elements/1.1/" xmlns:inkscape="http://www.inkscape.org/namespaces/inkscape" xmlns:rdf="http://www.w3.org/1999/02/22-rdf-syntax-ns#" xmlns:sodipodi="http://sodipodi.sourceforge.net/DTD/sodipodi-0.dtd" xmlns:svg="http://www.w3.org/2000/svg"
	 xmlns="http://www.w3.org/2000/svg" xmlns:xlink="http://www.w3.org/1999/xlink" x="0px" y="0px" viewBox="0 0 1200 1200"
	 style="enable-background:new 0 0 1200 1200;" xml:space="preserve">
<style type="text/css">
	.st0{fill:#A9ABAB;stroke:#A9ABAB;stroke-width:60;stroke-miterlimit:10;}
</style>
<g>
	<g transform="translate(600 600) scale(0.69 0.69) rotate(0) translate(-600 -600)">
		<g transform="translate(0,-952.36218)">
			<path class="st0" d="M918.2,931.9c-113.7,0-206.8,93.2-206.8,206.8c0,22.6,3.7,44.7,10.4,65.1l-311.7,186.9
				c-35.3-28.1-79.9-45.2-128.3-45.2c-113.7,0-206.8,93.2-206.8,206.8s93.2,206.8,206.8,206.8c48.6,0,93.3-16.9,128.8-45.2
				l311.7,186.9c-6.9,20.6-10.9,42.3-10.9,65.1c0,113.7,93.2,206.8,206.8,206.8c113.7,0,206.8-93.2,206.8-206.8
				c0-113.7-93.2-206.8-206.8-206.8c-56.6,0-108.2,23.4-145.7,60.7l-302.8-182c11.9-26.1,18.9-55.1,18.9-85.5
				c0-30.8-7.1-59.7-19.4-86L772,1284.9c37.5,37.5,89.3,60.7,146.2,60.7c113.7,0,206.8-93.2,206.8-206.8
				C1125,1025.1,1031.8,931.9,918.2,931.9L918.2,931.9z M918.2,1027.4c62.1,0,111.4,49.3,111.4,111.4c0,62.1-49.3,111.4-111.4,111.4
				s-111.4-49.3-111.4-111.4C806.8,1076.7,856.1,1027.4,918.2,1027.4z M281.8,1441c62.1,0,111.4,49.3,111.4,111.4
				c0,62.1-49.3,111.4-111.4,111.4c-62.1,0-111.4-49.3-111.4-111.4C170.5,1490.3,219.8,1441,281.8,1441z M918.2,1854.6
				c62.1,0,111.4,49.3,111.4,111.4c0,62.1-49.3,111.4-111.4,111.4S806.8,2028,806.8,1966C806.8,1903.9,856.1,1854.6,918.2,1854.6z"
				/>
		</g>
	</g>
</g>
</svg>
