<?xml version="1.0" encoding="utf-8"?>
<!-- Generator: Adobe Illustrator 22.1.0, SVG Export Plug-In . SVG Version: 6.00 Build 0)  -->
<svg version="1.1" id="Layer_1" xmlns="http://www.w3.org/2000/svg" xmlns:xlink="http://www.w3.org/1999/xlink" x="0px" y="0px"
	 viewBox="0 0 1200 1200" style="enable-background:new 0 0 1200 1200;" xml:space="preserve">
<style type="text/css">
	.st0{fill:#787FE8;}
</style>
<g>
	<g transform="translate(600 600) scale(0.69 0.69) rotate(0) translate(-600 -600)">
		<path class="st0" d="M383.2,1334.8c-15.5,0-31-5.9-42.1-15.7c-22.2-19.6-22.2-53,0-72.6C536.2,1073.7,644.9,844,644.9,598.5
			c0-243.5-106.4-471.2-299.3-644c-22.2-19.6-22.2-53,0-74.6c22.2-19.6,59.9-19.6,82,0C642.7,72.3,762.4,327.6,762.4,598.5
			c0,272.9-119.7,528.2-339.2,720.6C412.1,1328.9,396.5,1334.8,383.2,1334.8z M166,1091.3c150.8-131.5,232.8-306.3,232.8-492.8
			c0-184.6-79.8-359.3-228.4-490.9c-22.2-19.6-59.9-19.6-82,0s-22.2,53,0,72.6c124.2,111.9,192.9,259.2,192.9,416.2
			c0,159-71,308.3-197.3,420.2c-22.2,19.6-22.2,53,0,72.6c11.1,9.8,26.6,15.7,42.1,15.7C139.3,1107.1,154.9,1101.2,166,1091.3z
			 M-91.2,863.6c82-70.7,126.4-164.9,126.4-267c0-98.2-42.1-192.4-121.9-263.1c-22.2-19.6-59.9-21.6-82,0c-22.2,19.6-24.4,53,0,72.6
			c55.4,51,88.7,117.8,88.7,188.5c0,72.6-33.3,141.4-90.9,192.4c-22.2,19.6-24.4,53,0,72.6c11.1,9.8,26.6,15.7,42.1,15.7
			C-117.9,879.3-102.3,873.4-91.2,863.6z"/>
	</g>
</g>
</svg>
