<?xml version="1.0" encoding="utf-8"?>
<!-- Generator: Adobe Illustrator 22.1.0, SVG Export Plug-In . SVG Version: 6.00 Build 0)  -->
<svg version="1.1" id="Layer_1" xmlns="http://www.w3.org/2000/svg" xmlns:xlink="http://www.w3.org/1999/xlink" x="0px" y="0px"
	 viewBox="0 0 1200 1200" style="enable-background:new 0 0 1200 1200;" xml:space="preserve">
<style type="text/css">
	.st0{opacity:0.8;}
	.st1{fill:#787FE8;stroke:#787FE8;stroke-width:100;stroke-miterlimit:10;}
</style>
<g class="st0">
	<g transform="translate(600 600) scale(0.69 0.69) rotate(0) translate(-600 -600)">
		<g>
			<path class="st1" d="M816.1,371.2l308.9,45.3c63.8,0,89.3,80.8,39.7,117.6L937.9,758l48.2,321.6c19.8,59.5-49.6,109.1-99.2,72.3
				l-287.6-144.5l-286.2,144.5c-51,36.8-119-12.8-100.6-72.3l49.6-320.2L35.4,534.1c-49.6-36.8-24.1-117.6,38.3-117.6l308.9-45.3
				L538.4,79.3c19.8-59.5,103.4-59.5,123.3,0L816.1,371.2z M770.7,400.9L614.9,103.4c-1.4-2.8-2.8-4.3-2.8-7.1
				c-4.3-11.3-19.8-11.3-24.1,0c0,2.8-1.4,4.3-2.8,7.1L427.9,400.9c-7.1,11.3-18.4,19.8-32.6,22.7L80.8,468.9c-1.4,0-4.3,0-5.7,0
				c-12.8,0-17,15.6-7.1,22.7c1.4,1.4,2.8,2.8,4.3,4.3L303.2,724c9.9,9.9,14.2,24.1,11.3,38.3l-49.6,325.9c0,2.8,0,5.7-1.4,7.1
				c-4.3,11.3,9.9,21.3,18.4,14.2c2.8-1.4,4.3-2.8,5.7-4.3l291.9-147.3c12.8-7.1,26.9-7.1,39.7,0L911,1105.1
				c2.8,1.4,4.3,2.8,5.7,4.3c9.9,7.1,22.7-2.8,19.8-14.2c-1.4-1.4-1.4-4.3-2.8-7.1l-49.6-325.9c-1.4-14.2,2.8-28.3,12.8-38.3
				l230.9-228.1c1.4-1.4,2.8-2.8,4.3-4.3c9.9-7.1,4.3-22.7-7.1-22.7c-1.4,0-4.3,0-5.7,0l-315.9-45.3
				C789.1,422.2,777.8,413.7,770.7,400.9z"/>
		</g>
	</g>
</g>
</svg>
