<?xml version="1.0" encoding="utf-8"?>
<!-- Generator: Adobe Illustrator 22.1.0, SVG Export Plug-In . SVG Version: 6.00 Build 0)  -->
<svg version="1.1" id="Layer_1" xmlns="http://www.w3.org/2000/svg" xmlns:xlink="http://www.w3.org/1999/xlink" x="0px" y="0px"
	 viewBox="0 0 1200 1200" style="enable-background:new 0 0 1200 1200;" xml:space="preserve">
<style type="text/css">
	.st0{opacity:0.8;}
	.st1{fill:#787FE8;stroke:#787FE8;stroke-width:60;stroke-miterlimit:10;}
</style>
<g class="st0">
	<g transform="translate(600 600) scale(0.69 0.69) rotate(0) translate(-600 -600)">
		<path class="st1" d="M953,290.9c-25.1,0-45.5,20.4-45.5,45.5v719.3c0,18.5-15,33.5-33.5,33.5H326c-18.5,0-33.5-15-33.5-33.5V336.4
			c0-25.1-20.4-45.5-45.5-45.5s-45.5,20.4-45.5,45.5v719.3c0,68.7,55.9,124.5,124.5,124.5h548.1c68.6,0,124.5-55.9,124.5-124.5
			V336.4C998.6,311.3,978.2,290.9,953,290.9z M1023.7,179.4H883.8v-38.3c0-66.9-54.5-121.4-121.4-121.4H437.5
			c-66.9,0-121.4,54.5-121.4,121.4v38.3H176.3c-25.1,0-45.5,20.4-45.5,45.5s20.4,45.5,45.5,45.5h847.5c25.1,0,45.5-20.4,45.5-45.5
			S1048.9,179.4,1023.7,179.4z M792.8,179.4H407.2v-38.3c0-16.7,13.6-30.3,30.3-30.3h324.9c16.7,0,30.3,13.6,30.3,30.3V179.4z"/>
	</g>
</g>
</svg>
